# xmcd
#
# Track frame offsets:
#	150
#	15197
#	33224
#	46787
#	60564
#	81657
#	95339
#	109160
#	126180
#	142785
#	157491
#	170394
#	183590
#	197923
#	209194
#	223746
#	240459
#	260588
#	278934
#	293315
#	307571
#
# Disc length: 4284 seconds
#
# Revision: 0
# Processed by: cddbd v1.4PL0 Copyright (c) Steve Scherf et al.
# Submitted via: audiograbber 1.80
#
DISCID=2b10ba15
DTITLE=Bles Bridges - Deur Die Jare Heen Volume 2
DYEAR=1900
DGENRE=
TTITLE0=Ek sal by jou staan
TTITLE1=Love is my destiny
TTITLE2='n Aand om nooit te vergeet nie
TTITLE3='n Droom is nie genoeg vir my
TTITLE4=My Way
TTITLE5=Do What You Do Do Well
TTITLE6=Winter in my Hart
TTITLE7=No More Boleros
TTITLE8=Hei,  gaan jy Weer
TTITLE9=She wears my ring
TTITLE10=Stille Rivierstroom
TTITLE11=Jou hart is weer myne
TTITLE12=I can't help it if I'm still in Love with you 
TTITLE13=Wie ry  saam
TTITLE14=Duitswes Wals
TTITLE15=Please release me
TTITLE16=Nikita
TTITLE17=Yellow Roses
TTITLE18=Trans-Karoo  
TTITLE19=White rose of Athens
TTITLE20=You're my world
EXTD=
EXTT0=
EXTT1=
EXTT2=
EXTT3=
EXTT4=
EXTT5=
EXTT6=
EXTT7=
EXTT8=
EXTT9=
EXTT10=
EXTT11=
EXTT12=
EXTT13=
EXTT14=
EXTT15=
EXTT16=
EXTT17=
EXTT18=
EXTT19=
EXTT20=
PLAYORDER=
